<?xml version="1.0" encoding="UTF-8"?>
<svg version="1.1" viewBox="0 0 618.1 298" xmlns="http://www.w3.org/2000/svg">
 <rect width="617.9" height="298" fill="#cbebf8"/>
 <path d="m215.6 236.9s149.5-123.1 161.5-131.6c12-8.46 10-12.76 36 9.3 25 22.1 178 159.7 178 159.7z" fill="#878888"/>
 <path d="m389.1 98.44c-4 0.3-7 3.16-12 6.86-12 8.5-161.5 131.6-161.5 131.6l173.5 17.3v-155.76z" fill="#7d7e7e"/>
 <path d="m389.1 98.44c-4 0.3-7 3.16-12 6.86-2 1.7-11 8.4-22 17.6 0 3.4 0 6.7 1 8.3 3 4.1 17-3.8 17-3.8s2 10.6 16 10.6c11 0 12-13.6 12-13.6s19 12.3 25 5.9c1-0.8 1-1.9 1-3.3-7-5.4-11-9.7-14-12.4-14-12.4-20-16.46-24-16.16z" fill="#fff" fill-opacity=".9453"/>
 <path d="m389.1 98.44c-4 0.3-7 3.16-12 6.86-2 1.7-11 8.4-22 17.6 0 3.4 0 6.7 1 8.3 3 4.1 17-3.8 17-3.8s2 10.6 16 10.6h1v-39.56h-1z" fill="#f2f2f2" fill-opacity=".5595"/>
 <path d="m204.2 67.67c-4.2 0.3-7.5 3.86-13.9 8.44-14 10.01-174.6 146.29-188.8 157.99v4.5l451.6 45.6s-187-169.4-218.9-196.59c-17.6-15.3-24.6-20.32-30-19.94z" fill="#878888"/>
 <path d="m204.1 67.67c-4.2 0.3-7.4 3.86-13.8 8.44-13.4 9.61-165 133.59-190.3 154.29v8.6l204.9 20.4v-191.73h-0.8z" fill="#7d7e7e"/>
 <path d="m204.1 67.67c-4.2 0.3-7.4 3.86-13.8 8.44-3 2.13-13.3 10.33-27.4 21.72-0.4 4.07-0.3 8.17 1.3 10.17 3.9 5 20.9-4.7 20.9-4.7s2.1 13 19.9 13c13.5 0 14.1-16.66 14.1-16.66s24.6 15.16 31 7.26c1-1 2-2.4 1-4.1-7.1-6.61-13.2-11.97-16.9-15.19-17.6-15.3-24.7-20.32-30.1-19.94z" fill="#fff" fill-opacity=".9453"/>
 <path d="m204.1 67.67c-4.2 0.3-7.4 3.86-13.8 8.44-3 2.13-13.3 10.33-27.4 21.72-0.4 4.07-0.3 8.17 1.3 10.17 3.9 5 20.9-4.7 20.9-4.7s2.1 13 19.9 13h0.1v-48.63h-1z" fill="#f2f2f2" fill-opacity=".5595"/>
 <path transform="translate(-754.9 .6447)" d="m1223 46.05a20.86 20.86 0 1 1 1 -3.09" fill="#ece479"/>
 <path d="m618.1 203.8c-6 0.7-12 1.6-19 2.8-33 6-134 33.8-202 38.8-67 4.9-189.4-28.8-248-30.8-58.69-2-148.1 12.9-148.1 12.9l-1 0.9v69.5h618.1v-94.1z" fill="#b6d8cb"/>
</svg>
